<svg width="473" height="306" viewBox="0 0 473 306" fill="none" xmlns="http://www.w3.org/2000/svg">
<g filter="url(#filter0_dddd_39_53)">
<path d="M248 18H28C22.4772 18 18 22.4772 18 28V81C18 86.5229 22.4772 91 28 91H248C253.523 91 258 86.5229 258 81V28C258 22.4772 253.523 18 248 18Z" fill="white"/>
<path d="M240 27H36C31.0294 27 27 31.0294 27 36V73C27 77.9706 31.0294 82 36 82H240C244.971 82 249 77.9706 249 73V36C249 31.0294 244.971 27 240 27Z" fill="white"/>
<path d="M240 27H36C31.0294 27 27 31.0294 27 36V73C27 77.9706 31.0294 82 36 82H240C244.971 82 249 77.9706 249 73V36C249 31.0294 244.971 27 240 27Z" stroke="url(#paint0_linear_39_53)" stroke-width="2"/>
<path d="M47.7539 61.8281L57.6953 39.5625H64.2188L50.1562 68H45.8398L47.7539 61.8281ZM45.2344 39.5625L48.2227 62.3359L48.2812 68H44.1602L39.0625 39.5625H45.2344ZM86.9727 53.0195L86.8164 54.3867C86.556 56.2096 86.0677 57.9674 85.3516 59.6602C84.6354 61.3529 83.6979 62.8633 82.5391 64.1914C81.3802 65.5065 80 66.5482 78.3984 67.3164C76.8099 68.0716 75.0065 68.4297 72.9883 68.3906C71.0612 68.3516 69.4271 67.9349 68.0859 67.1406C66.7578 66.3333 65.7031 65.2656 64.9219 63.9375C64.1536 62.6094 63.6393 61.1315 63.3789 59.5039C63.1185 57.8633 63.0924 56.1836 63.3008 54.4648L63.457 53.1172C63.7174 51.2943 64.2057 49.543 64.9219 47.8633C65.651 46.1836 66.5951 44.6862 67.7539 43.3711C68.9258 42.043 70.306 41.0013 71.8945 40.2461C73.4961 39.4909 75.293 39.1328 77.2852 39.1719C79.2122 39.1979 80.8398 39.6146 82.168 40.4219C83.5091 41.2161 84.5638 42.2773 85.332 43.6055C86.1133 44.9206 86.6341 46.3984 86.8945 48.0391C87.1549 49.6667 87.181 51.3268 86.9727 53.0195ZM81.0156 54.4648L81.2109 53.0586C81.3151 52.1732 81.3672 51.2161 81.3672 50.1875C81.3802 49.1458 81.263 48.1497 81.0156 47.1992C80.7682 46.2357 80.3255 45.4479 79.6875 44.8359C79.0625 44.2109 78.1576 43.8724 76.9727 43.8203C75.6966 43.7812 74.6029 44.0352 73.6914 44.582C72.793 45.1289 72.0378 45.8711 71.4258 46.8086C70.8268 47.7331 70.3516 48.7487 70 49.8555C69.6615 50.9492 69.4141 52.0234 69.2578 53.0781L69.082 54.4844C68.9648 55.3568 68.8997 56.3203 68.8867 57.375C68.8867 58.4167 69.0104 59.4193 69.2578 60.3828C69.5052 61.3333 69.9479 62.1211 70.5859 62.7461C71.224 63.3711 72.1354 63.7096 73.3203 63.7617C74.5833 63.8008 75.6641 63.5404 76.5625 62.9805C77.474 62.4206 78.2357 61.6784 78.8477 60.7539C79.4596 59.8164 79.9414 58.8008 80.293 57.707C80.6445 56.6003 80.8854 55.5195 81.0156 54.4648ZM108.809 63.4297L108.027 68H88.4375L89.2383 63.4297H108.809ZM112.051 43.0781L91.1523 68H86.9531L87.5977 64.3867L108.594 39.5625H112.676L112.051 43.0781ZM110.723 39.5625L109.922 44.1523H91.0938L91.9141 39.5625H110.723Z" fill="#1351B4"/>
<path d="M121.312 66.0312L123.047 56H125.258L123.18 68H121.203L121.312 66.0312ZM116.5 63.9375L116.516 63.7656C116.583 63.25 116.703 62.7292 116.875 62.2031C117.052 61.6771 117.292 61.1979 117.594 60.7656C117.901 60.3333 118.279 59.9896 118.727 59.7344C119.174 59.4792 119.706 59.362 120.32 59.3828C120.846 59.4036 121.281 59.5521 121.625 59.8281C121.969 60.099 122.234 60.4505 122.422 60.8828C122.615 61.3099 122.745 61.7656 122.812 62.25C122.885 62.7292 122.914 63.1849 122.898 63.6172L122.859 63.9922C122.776 64.4557 122.635 64.9349 122.438 65.4297C122.245 65.9193 121.992 66.375 121.68 66.7969C121.372 67.2135 121.005 67.5495 120.578 67.8047C120.156 68.0599 119.674 68.1797 119.133 68.1641C118.565 68.1484 118.099 68.0104 117.734 67.75C117.375 67.4844 117.096 67.1432 116.898 66.7266C116.701 66.3099 116.573 65.8568 116.516 65.3672C116.458 64.8776 116.453 64.401 116.5 63.9375ZM118.727 63.7578L118.711 63.9219C118.69 64.1458 118.677 64.3984 118.672 64.6797C118.672 64.9557 118.701 65.224 118.758 65.4844C118.82 65.7396 118.932 65.9531 119.094 66.125C119.26 66.2917 119.5 66.3828 119.812 66.3984C120.208 66.4141 120.549 66.3229 120.836 66.125C121.122 65.9219 121.352 65.6615 121.523 65.3438C121.701 65.026 121.818 64.6927 121.875 64.3438L122.023 63.3047C122.049 63.0651 122.049 62.8229 122.023 62.5781C121.997 62.3333 121.938 62.1042 121.844 61.8906C121.755 61.6771 121.62 61.5026 121.438 61.3672C121.26 61.2318 121.029 61.1615 120.742 61.1562C120.393 61.1406 120.096 61.2161 119.852 61.3828C119.612 61.5443 119.417 61.7578 119.266 62.0234C119.115 62.2839 118.995 62.5677 118.906 62.875C118.823 63.1823 118.763 63.4766 118.727 63.7578ZM125.242 63.9062L125.266 63.7422C125.328 63.1432 125.471 62.5807 125.695 62.0547C125.924 61.5234 126.227 61.0573 126.602 60.6562C126.982 60.25 127.427 59.9349 127.938 59.7109C128.453 59.4818 129.031 59.375 129.672 59.3906C130.281 59.401 130.807 59.5234 131.25 59.7578C131.693 59.9922 132.055 60.3073 132.336 60.7031C132.622 61.099 132.823 61.5521 132.938 62.0625C133.057 62.5729 133.091 63.112 133.039 63.6797L133.023 63.8516C132.956 64.4453 132.805 65.0052 132.57 65.5312C132.341 66.0521 132.036 66.513 131.656 66.9141C131.281 67.3099 130.836 67.6198 130.32 67.8438C129.805 68.0677 129.232 68.1719 128.602 68.1562C128.003 68.1458 127.479 68.026 127.031 67.7969C126.583 67.5625 126.219 67.25 125.938 66.8594C125.656 66.4635 125.458 66.013 125.344 65.5078C125.229 65.0026 125.195 64.4688 125.242 63.9062ZM127.461 63.7422L127.445 63.9141C127.419 64.1641 127.411 64.4323 127.422 64.7188C127.432 65 127.477 65.2682 127.555 65.5234C127.638 65.7786 127.773 65.987 127.961 66.1484C128.148 66.3099 128.406 66.3958 128.734 66.4062C129.083 66.4167 129.383 66.3464 129.633 66.1953C129.883 66.0443 130.089 65.8411 130.25 65.5859C130.411 65.3255 130.539 65.0443 130.633 64.7422C130.727 64.4349 130.789 64.1354 130.82 63.8438L130.836 63.6797C130.857 63.4297 130.862 63.1615 130.852 62.875C130.846 62.5833 130.802 62.3099 130.719 62.0547C130.635 61.7943 130.5 61.5807 130.312 61.4141C130.125 61.2474 129.867 61.1589 129.539 61.1484C129.19 61.1328 128.891 61.2057 128.641 61.3672C128.391 61.5234 128.185 61.7318 128.023 61.9922C127.862 62.2526 127.734 62.5365 127.641 62.8438C127.552 63.151 127.492 63.4505 127.461 63.7422Z" fill="#6D6E71"/>
<path d="M149.789 57.8828L142.426 57.8633L143.227 53.293L149.984 53.3125C150.948 53.3125 151.833 53.1432 152.641 52.8047C153.448 52.4531 154.112 51.9453 154.633 51.2812C155.154 50.6172 155.486 49.7839 155.629 48.7812C155.759 47.9349 155.714 47.1732 155.492 46.4961C155.271 45.819 154.88 45.2721 154.32 44.8555C153.76 44.4388 153.038 44.2109 152.152 44.1719L146.82 44.1523L142.68 68H136.957L141.879 39.5625L152.328 39.582C154.138 39.6211 155.753 40.0117 157.172 40.7539C158.591 41.4831 159.685 42.5247 160.453 43.8789C161.234 45.2201 161.547 46.8411 161.391 48.7422C161.221 50.8125 160.577 52.5247 159.457 53.8789C158.337 55.2331 156.924 56.2422 155.219 56.9062C153.526 57.5573 151.716 57.8828 149.789 57.8828ZM187.23 53.0195L187.074 54.3867C186.814 56.2096 186.326 57.9674 185.609 59.6602C184.893 61.3529 183.956 62.8633 182.797 64.1914C181.638 65.5065 180.258 66.5482 178.656 67.3164C177.068 68.0716 175.264 68.4297 173.246 68.3906C171.319 68.3516 169.685 67.9349 168.344 67.1406C167.016 66.3333 165.961 65.2656 165.18 63.9375C164.411 62.6094 163.897 61.1315 163.637 59.5039C163.376 57.8633 163.35 56.1836 163.559 54.4648L163.715 53.1172C163.975 51.2943 164.464 49.543 165.18 47.8633C165.909 46.1836 166.853 44.6862 168.012 43.3711C169.184 42.043 170.564 41.0013 172.152 40.2461C173.754 39.4909 175.551 39.1328 177.543 39.1719C179.47 39.1979 181.098 39.6146 182.426 40.4219C183.767 41.2161 184.822 42.2773 185.59 43.6055C186.371 44.9206 186.892 46.3984 187.152 48.0391C187.413 49.6667 187.439 51.3268 187.23 53.0195ZM181.273 54.4648L181.469 53.0586C181.573 52.1732 181.625 51.2161 181.625 50.1875C181.638 49.1458 181.521 48.1497 181.273 47.1992C181.026 46.2357 180.583 45.4479 179.945 44.8359C179.32 44.2109 178.415 43.8724 177.23 43.8203C175.954 43.7812 174.861 44.0352 173.949 44.582C173.051 45.1289 172.296 45.8711 171.684 46.8086C171.085 47.7331 170.609 48.7487 170.258 49.8555C169.919 50.9492 169.672 52.0234 169.516 53.0781L169.34 54.4844C169.223 55.3568 169.158 56.3203 169.145 57.375C169.145 58.4167 169.268 59.4193 169.516 60.3828C169.763 61.3333 170.206 62.1211 170.844 62.7461C171.482 63.3711 172.393 63.7096 173.578 63.7617C174.841 63.8008 175.922 63.5404 176.82 62.9805C177.732 62.4206 178.493 61.6784 179.105 60.7539C179.717 59.8164 180.199 58.8008 180.551 57.707C180.902 56.6003 181.143 55.5195 181.273 54.4648ZM199.418 61.8281L209.359 39.5625H215.883L201.82 68H197.504L199.418 61.8281ZM196.898 39.5625L199.887 62.3359L199.945 68H195.824L190.727 39.5625H196.898ZM238.637 53.0195L238.48 54.3867C238.22 56.2096 237.732 57.9674 237.016 59.6602C236.299 61.3529 235.362 62.8633 234.203 64.1914C233.044 65.5065 231.664 66.5482 230.062 67.3164C228.474 68.0716 226.671 68.4297 224.652 68.3906C222.725 68.3516 221.091 67.9349 219.75 67.1406C218.422 66.3333 217.367 65.2656 216.586 63.9375C215.818 62.6094 215.303 61.1315 215.043 59.5039C214.783 57.8633 214.757 56.1836 214.965 54.4648L215.121 53.1172C215.382 51.2943 215.87 49.543 216.586 47.8633C217.315 46.1836 218.259 44.6862 219.418 43.3711C220.59 42.043 221.97 41.0013 223.559 40.2461C225.16 39.4909 226.957 39.1328 228.949 39.1719C230.876 39.1979 232.504 39.6146 233.832 40.4219C235.173 41.2161 236.228 42.2773 236.996 43.6055C237.777 44.9206 238.298 46.3984 238.559 48.0391C238.819 49.6667 238.845 51.3268 238.637 53.0195ZM232.68 54.4648L232.875 53.0586C232.979 52.1732 233.031 51.2161 233.031 50.1875C233.044 49.1458 232.927 48.1497 232.68 47.1992C232.432 46.2357 231.99 45.4479 231.352 44.8359C230.727 44.2109 229.822 43.8724 228.637 43.8203C227.361 43.7812 226.267 44.0352 225.355 44.582C224.457 45.1289 223.702 45.8711 223.09 46.8086C222.491 47.7331 222.016 48.7487 221.664 49.8555C221.326 50.9492 221.078 52.0234 220.922 53.0781L220.746 54.4844C220.629 55.3568 220.564 56.3203 220.551 57.375C220.551 58.4167 220.674 59.4193 220.922 60.3828C221.169 61.3333 221.612 62.1211 222.25 62.7461C222.888 63.3711 223.799 63.7096 224.984 63.7617C226.247 63.8008 227.328 63.5404 228.227 62.9805C229.138 62.4206 229.9 61.6784 230.512 60.7539C231.124 59.8164 231.605 58.8008 231.957 57.707C232.309 56.6003 232.549 55.5195 232.68 54.4648Z" fill="#FABA00"/>
<path d="M171 72H75V83H171V72Z" fill="white"/>
<path d="M87.1602 82.4336L83.3516 82.4238L83.625 80.8906L87.209 80.9004C87.821 80.9004 88.3809 80.7962 88.8887 80.5879C89.403 80.3796 89.8262 80.0671 90.1582 79.6504C90.4967 79.2337 90.7051 78.7031 90.7832 78.0586C90.8548 77.5052 90.7995 77.0299 90.6172 76.6328C90.4414 76.2292 90.1615 75.9167 89.7773 75.6953C89.3932 75.474 88.9277 75.3535 88.3809 75.334L85.0215 75.3242L82.8242 88H80.9785L83.4492 73.7812L88.4297 73.791C89.276 73.8105 90.028 73.9896 90.6855 74.3281C91.3496 74.6602 91.8574 75.1387 92.209 75.7637C92.5605 76.3887 92.6973 77.1471 92.6191 78.0391C92.5345 79.0417 92.235 79.8685 91.7207 80.5195C91.2129 81.1706 90.5586 81.6523 89.7578 81.9648C88.9635 82.2773 88.0977 82.4336 87.1602 82.4336ZM99.2305 86.1934L100.109 80.7344C100.155 80.3307 100.116 79.9759 99.9922 79.6699C99.875 79.3639 99.6764 79.1263 99.3965 78.957C99.123 78.7878 98.778 78.6966 98.3613 78.6836C97.9967 78.6771 97.6387 78.7357 97.2871 78.8594C96.9421 78.9831 96.6426 79.1686 96.3887 79.416C96.1348 79.6634 95.9688 79.9759 95.8906 80.3535L94.1328 80.3633C94.1784 79.8359 94.3444 79.377 94.6309 78.9863C94.9173 78.5892 95.2754 78.2604 95.7051 78C96.1348 77.7331 96.597 77.5378 97.0918 77.4141C97.5866 77.2839 98.0684 77.222 98.5371 77.2285C99.2467 77.2415 99.862 77.3945 100.383 77.6875C100.91 77.974 101.307 78.3776 101.574 78.8984C101.841 79.4193 101.939 80.0443 101.867 80.7734L101.057 85.6953C100.998 86.0534 100.962 86.4147 100.949 86.7793C100.943 87.1374 100.985 87.4889 101.076 87.834L101.057 88L99.2695 88.0098C99.1979 87.7103 99.1621 87.4076 99.1621 87.1016C99.1686 86.7956 99.1914 86.4928 99.2305 86.1934ZM100.314 81.5938L100.109 82.8633L98.4395 82.8535C98.0879 82.8535 97.7168 82.8796 97.3262 82.9316C96.9355 82.9837 96.5645 83.0814 96.2129 83.2246C95.8613 83.3678 95.5651 83.5762 95.3242 83.8496C95.0833 84.1165 94.9368 84.4648 94.8848 84.8945C94.8457 85.2461 94.888 85.5521 95.0117 85.8125C95.1419 86.0664 95.3372 86.265 95.5977 86.4082C95.8581 86.5514 96.1608 86.6263 96.5059 86.6328C96.9551 86.6393 97.3978 86.5514 97.834 86.3691C98.2702 86.1868 98.651 85.9264 98.9766 85.5879C99.3021 85.2493 99.5267 84.8587 99.6504 84.416L100.295 85.2852C100.171 85.7148 99.9694 86.112 99.6895 86.4766C99.4095 86.8346 99.0775 87.1439 98.6934 87.4043C98.3158 87.6647 97.9089 87.8665 97.4727 88.0098C97.0365 88.153 96.6003 88.2214 96.1641 88.2148C95.5716 88.2018 95.0345 88.0684 94.5527 87.8145C94.0775 87.5605 93.6999 87.2057 93.4199 86.75C93.1465 86.2878 93.0293 85.7507 93.0684 85.1387C93.1074 84.4681 93.2832 83.9049 93.5957 83.4492C93.9082 82.9935 94.3086 82.6289 94.7969 82.3555C95.2917 82.082 95.832 81.8867 96.418 81.7695C97.0039 81.6458 97.5833 81.584 98.1562 81.584L100.314 81.5938ZM106.711 79.1719L105.178 88H103.41L105.246 77.4336H106.965L106.711 79.1719ZM110.139 77.3457L109.973 79.0449C109.836 79.0189 109.696 78.9961 109.553 78.9766C109.416 78.957 109.279 78.9473 109.143 78.9473C108.719 78.9408 108.339 79.0059 108 79.1426C107.668 79.2728 107.372 79.4583 107.111 79.6992C106.857 79.9401 106.639 80.2233 106.457 80.5488C106.281 80.8743 106.141 81.2259 106.037 81.6035L105.48 81.8965C105.552 81.3691 105.669 80.8288 105.832 80.2754C106.001 79.722 106.232 79.2109 106.525 78.7422C106.825 78.2734 107.199 77.8958 107.648 77.6094C108.104 77.3229 108.651 77.1895 109.289 77.209C109.432 77.209 109.572 77.222 109.709 77.248C109.852 77.2741 109.995 77.3066 110.139 77.3457ZM115.988 86.1934L116.867 80.7344C116.913 80.3307 116.874 79.9759 116.75 79.6699C116.633 79.3639 116.434 79.1263 116.154 78.957C115.881 78.7878 115.536 78.6966 115.119 78.6836C114.755 78.6771 114.396 78.7357 114.045 78.8594C113.7 78.9831 113.4 79.1686 113.146 79.416C112.893 79.6634 112.727 79.9759 112.648 80.3535L110.891 80.3633C110.936 79.8359 111.102 79.377 111.389 78.9863C111.675 78.5892 112.033 78.2604 112.463 78C112.893 77.7331 113.355 77.5378 113.85 77.4141C114.344 77.2839 114.826 77.222 115.295 77.2285C116.005 77.2415 116.62 77.3945 117.141 77.6875C117.668 77.974 118.065 78.3776 118.332 78.8984C118.599 79.4193 118.697 80.0443 118.625 80.7734L117.814 85.6953C117.756 86.0534 117.72 86.4147 117.707 86.7793C117.701 87.1374 117.743 87.4889 117.834 87.834L117.814 88L116.027 88.0098C115.956 87.7103 115.92 87.4076 115.92 87.1016C115.926 86.7956 115.949 86.4928 115.988 86.1934ZM117.072 81.5938L116.867 82.8633L115.197 82.8535C114.846 82.8535 114.475 82.8796 114.084 82.9316C113.693 82.9837 113.322 83.0814 112.971 83.2246C112.619 83.3678 112.323 83.5762 112.082 83.8496C111.841 84.1165 111.695 84.4648 111.643 84.8945C111.604 85.2461 111.646 85.5521 111.77 85.8125C111.9 86.0664 112.095 86.265 112.355 86.4082C112.616 86.5514 112.919 86.6263 113.264 86.6328C113.713 86.6393 114.156 86.5514 114.592 86.3691C115.028 86.1868 115.409 85.9264 115.734 85.5879C116.06 85.2493 116.285 84.8587 116.408 84.416L117.053 85.2852C116.929 85.7148 116.727 86.112 116.447 86.4766C116.167 86.8346 115.835 87.1439 115.451 87.4043C115.074 87.6647 114.667 87.8665 114.23 88.0098C113.794 88.153 113.358 88.2214 112.922 88.2148C112.329 88.2018 111.792 88.0684 111.311 87.8145C110.835 87.5605 110.458 87.2057 110.178 86.75C109.904 86.2878 109.787 85.7507 109.826 85.1387C109.865 84.4681 110.041 83.9049 110.354 83.4492C110.666 82.9935 111.066 82.6289 111.555 82.3555C112.049 82.082 112.59 81.8867 113.176 81.7695C113.762 81.6458 114.341 81.584 114.914 81.584L117.072 81.5938ZM123.361 79.7969L121.936 88H120.168L122.004 77.4336H123.674L123.361 79.7969ZM122.541 82.3164L121.818 82.2969C121.91 81.6654 122.076 81.0469 122.316 80.4414C122.564 79.8294 122.886 79.2793 123.283 78.791C123.687 78.3027 124.165 77.9186 124.719 77.6387C125.279 77.3522 125.917 77.2188 126.633 77.2383C127.199 77.2513 127.671 77.362 128.049 77.5703C128.433 77.7721 128.732 78.0488 128.947 78.4004C129.162 78.752 129.305 79.1589 129.377 79.6211C129.449 80.0768 129.455 80.5618 129.396 81.0762L128.244 88H126.467L127.639 81.0469C127.684 80.6237 127.668 80.2428 127.59 79.9043C127.518 79.5592 127.355 79.2858 127.102 79.084C126.854 78.8757 126.496 78.765 126.027 78.752C125.533 78.7389 125.087 78.8333 124.689 79.0352C124.292 79.237 123.944 79.5137 123.645 79.8652C123.352 80.2103 123.111 80.5977 122.922 81.0273C122.74 81.4505 122.613 81.8802 122.541 82.3164ZM137.277 86.1934L138.156 80.7344C138.202 80.3307 138.163 79.9759 138.039 79.6699C137.922 79.3639 137.723 79.1263 137.443 78.957C137.17 78.7878 136.825 78.6966 136.408 78.6836C136.044 78.6771 135.686 78.7357 135.334 78.8594C134.989 78.9831 134.689 79.1686 134.436 79.416C134.182 79.6634 134.016 79.9759 133.938 80.3535L132.18 80.3633C132.225 79.8359 132.391 79.377 132.678 78.9863C132.964 78.5892 133.322 78.2604 133.752 78C134.182 77.7331 134.644 77.5378 135.139 77.4141C135.633 77.2839 136.115 77.222 136.584 77.2285C137.294 77.2415 137.909 77.3945 138.43 77.6875C138.957 77.974 139.354 78.3776 139.621 78.8984C139.888 79.4193 139.986 80.0443 139.914 80.7734L139.104 85.6953C139.045 86.0534 139.009 86.4147 138.996 86.7793C138.99 87.1374 139.032 87.4889 139.123 87.834L139.104 88L137.316 88.0098C137.245 87.7103 137.209 87.4076 137.209 87.1016C137.215 86.7956 137.238 86.4928 137.277 86.1934ZM138.361 81.5938L138.156 82.8633L136.486 82.8535C136.135 82.8535 135.764 82.8796 135.373 82.9316C134.982 82.9837 134.611 83.0814 134.26 83.2246C133.908 83.3678 133.612 83.5762 133.371 83.8496C133.13 84.1165 132.984 84.4648 132.932 84.8945C132.893 85.2461 132.935 85.5521 133.059 85.8125C133.189 86.0664 133.384 86.265 133.645 86.4082C133.905 86.5514 134.208 86.6263 134.553 86.6328C135.002 86.6393 135.445 86.5514 135.881 86.3691C136.317 86.1868 136.698 85.9264 137.023 85.5879C137.349 85.2493 137.574 84.8587 137.697 84.416L138.342 85.2852C138.218 85.7148 138.016 86.112 137.736 86.4766C137.456 86.8346 137.124 87.1439 136.74 87.4043C136.363 87.6647 135.956 87.8665 135.52 88.0098C135.083 88.153 134.647 88.2214 134.211 88.2148C133.618 88.2018 133.081 88.0684 132.6 87.8145C132.124 87.5605 131.747 87.2057 131.467 86.75C131.193 86.2878 131.076 85.7507 131.115 85.1387C131.154 84.4681 131.33 83.9049 131.643 83.4492C131.955 82.9935 132.355 82.6289 132.844 82.3555C133.339 82.082 133.879 81.8867 134.465 81.7695C135.051 81.6458 135.63 81.584 136.203 81.584L138.361 81.5938ZM144.787 86.2812L148.947 77.4336H150.812L145.471 88H144.23L144.787 86.2812ZM143.811 77.4336L145.314 86.5059L145.266 88H144.133L142.062 77.4336H143.811ZM156.926 86.1934L157.805 80.7344C157.85 80.3307 157.811 79.9759 157.688 79.6699C157.57 79.3639 157.372 79.1263 157.092 78.957C156.818 78.7878 156.473 78.6966 156.057 78.6836C155.692 78.6771 155.334 78.7357 154.982 78.8594C154.637 78.9831 154.338 79.1686 154.084 79.416C153.83 79.6634 153.664 79.9759 153.586 80.3535L151.828 80.3633C151.874 79.8359 152.04 79.377 152.326 78.9863C152.613 78.5892 152.971 78.2604 153.4 78C153.83 77.7331 154.292 77.5378 154.787 77.4141C155.282 77.2839 155.764 77.222 156.232 77.2285C156.942 77.2415 157.557 77.3945 158.078 77.6875C158.605 77.974 159.003 78.3776 159.27 78.8984C159.536 79.4193 159.634 80.0443 159.562 80.7734L158.752 85.6953C158.693 86.0534 158.658 86.4147 158.645 86.7793C158.638 87.1374 158.68 87.4889 158.771 87.834L158.752 88L156.965 88.0098C156.893 87.7103 156.857 87.4076 156.857 87.1016C156.864 86.7956 156.887 86.4928 156.926 86.1934ZM158.01 81.5938L157.805 82.8633L156.135 82.8535C155.783 82.8535 155.412 82.8796 155.021 82.9316C154.631 82.9837 154.26 83.0814 153.908 83.2246C153.557 83.3678 153.26 83.5762 153.02 83.8496C152.779 84.1165 152.632 84.4648 152.58 84.8945C152.541 85.2461 152.583 85.5521 152.707 85.8125C152.837 86.0664 153.033 86.265 153.293 86.4082C153.553 86.5514 153.856 86.6263 154.201 86.6328C154.65 86.6393 155.093 86.5514 155.529 86.3691C155.965 86.1868 156.346 85.9264 156.672 85.5879C156.997 85.2493 157.222 84.8587 157.346 84.416L157.99 85.2852C157.867 85.7148 157.665 86.112 157.385 86.4766C157.105 86.8346 156.773 87.1439 156.389 87.4043C156.011 87.6647 155.604 87.8665 155.168 88.0098C154.732 88.153 154.296 88.2214 153.859 88.2148C153.267 88.2018 152.73 88.0684 152.248 87.8145C151.773 87.5605 151.395 87.2057 151.115 86.75C150.842 86.2878 150.725 85.7507 150.764 85.1387C150.803 84.4681 150.979 83.9049 151.291 83.4492C151.604 82.9935 152.004 82.6289 152.492 82.3555C152.987 82.082 153.527 81.8867 154.113 81.7695C154.699 81.6458 155.279 81.584 155.852 81.584L158.01 81.5938ZM164.846 77.4336L163.01 88H161.252L163.088 77.4336H164.846ZM163.244 75.8906L165.539 73.0195H167.785L164.797 75.8906H163.244Z" fill="#6D6E71"/>
</g>
<defs>
<filter id="filter0_dddd_39_53" x="0" y="0" width="473" height="306" filterUnits="userSpaceOnUse" color-interpolation-filters="sRGB">
<feFlood flood-opacity="0" result="BackgroundImageFix"/>
<feColorMatrix in="SourceAlpha" type="matrix" values="0 0 0 0 0 0 0 0 0 0 0 0 0 0 0 0 0 0 127 0" result="hardAlpha"/>
<feOffset dx="9" dy="9"/>
<feGaussianBlur stdDeviation="13.5"/>
<feColorMatrix type="matrix" values="0 0 0 0 0 0 0 0 0 0 0 0 0 0 0 0 0 0 0.1 0"/>
<feBlend mode="normal" in2="BackgroundImageFix" result="effect1_dropShadow_39_53"/>
<feColorMatrix in="SourceAlpha" type="matrix" values="0 0 0 0 0 0 0 0 0 0 0 0 0 0 0 0 0 0 127 0" result="hardAlpha"/>
<feOffset dx="34" dy="34"/>
<feGaussianBlur stdDeviation="24.5"/>
<feColorMatrix type="matrix" values="0 0 0 0 0 0 0 0 0 0 0 0 0 0 0 0 0 0 0.09 0"/>
<feBlend mode="normal" in2="effect1_dropShadow_39_53" result="effect2_dropShadow_39_53"/>
<feColorMatrix in="SourceAlpha" type="matrix" values="0 0 0 0 0 0 0 0 0 0 0 0 0 0 0 0 0 0 127 0" result="hardAlpha"/>
<feOffset dx="77" dy="77"/>
<feGaussianBlur stdDeviation="32.5"/>
<feColorMatrix type="matrix" values="0 0 0 0 0 0 0 0 0 0 0 0 0 0 0 0 0 0 0.05 0"/>
<feBlend mode="normal" in2="effect2_dropShadow_39_53" result="effect3_dropShadow_39_53"/>
<feColorMatrix in="SourceAlpha" type="matrix" values="0 0 0 0 0 0 0 0 0 0 0 0 0 0 0 0 0 0 127 0" result="hardAlpha"/>
<feOffset dx="137" dy="137"/>
<feGaussianBlur stdDeviation="39"/>
<feColorMatrix type="matrix" values="0 0 0 0 0 0 0 0 0 0 0 0 0 0 0 0 0 0 0.01 0"/>
<feBlend mode="normal" in2="effect3_dropShadow_39_53" result="effect4_dropShadow_39_53"/>
<feBlend mode="normal" in="SourceGraphic" in2="effect4_dropShadow_39_53" result="shape"/>
</filter>
<linearGradient id="paint0_linear_39_53" x1="26" y1="83" x2="249.484" y2="24.0445" gradientUnits="userSpaceOnUse">
<stop stop-color="#1351B4"/>
<stop offset="1" stop-color="#FABA00"/>
</linearGradient>
</defs>
</svg>
