<svg width="64" height="50" viewBox="0 0 64 50" fill="none" xmlns="http://www.w3.org/2000/svg">
<rect x="1" y="4" width="62" height="42" rx="9" fill="white"/>
<rect x="1" y="4" width="62" height="42" rx="9" stroke="url(#paint0_linear_44_28)" stroke-width="2"/>
<path d="M16.832 32.8281L26.7734 10.5625H33.2969L19.2344 39H14.918L16.832 32.8281ZM14.3125 10.5625L17.3008 33.3359L17.3594 39H13.2383L8.14062 10.5625H14.3125Z" fill="#1351B4"/>
<path d="M46.875 28.8828L39.5117 28.8633L40.3125 24.293L47.0703 24.3125C48.0339 24.3125 48.9193 24.1432 49.7266 23.8047C50.5339 23.4531 51.1979 22.9453 51.7188 22.2812C52.2396 21.6172 52.5716 20.7839 52.7148 19.7812C52.8451 18.9349 52.7995 18.1732 52.5781 17.4961C52.3568 16.819 51.9661 16.2721 51.4062 15.8555C50.8464 15.4388 50.1237 15.2109 49.2383 15.1719L43.9062 15.1523L39.7656 39H34.043L38.9648 10.5625L49.4141 10.582C51.224 10.6211 52.8385 11.0117 54.2578 11.7539C55.6771 12.4831 56.7708 13.5247 57.5391 14.8789C58.3203 16.2201 58.6328 17.8411 58.4766 19.7422C58.3073 21.8125 57.6628 23.5247 56.543 24.8789C55.4232 26.2331 54.0104 27.2422 52.3047 27.9062C50.612 28.5573 48.8021 28.8828 46.875 28.8828Z" fill="#FABA00"/>
<defs>
<linearGradient id="paint0_linear_44_28" x1="1.28037e-07" y1="47" x2="67.6512" y2="40.3945" gradientUnits="userSpaceOnUse">
<stop stop-color="#1351B4"/>
<stop offset="1" stop-color="#FABA00"/>
</linearGradient>
</defs>
</svg>
