<svg width="240" height="73" viewBox="0 0 240 73" fill="none" xmlns="http://www.w3.org/2000/svg">
<g id="logo">
<path id="Vector" d="M230 0H10C4.47715 0 0 4.47715 0 10V63C0 68.5229 4.47715 73 10 73H230C235.523 73 240 68.5229 240 63V10C240 4.47715 235.523 0 230 0Z" fill="white"/>
<path id="Vector_2" d="M222 9H18C13.0294 9 9 13.0294 9 18V55C9 59.9706 13.0294 64 18 64H222C226.971 64 231 59.9706 231 55V18C231 13.0294 226.971 9 222 9Z" fill="white"/>
<path id="Vector_3" d="M222 9H18C13.0294 9 9 13.0294 9 18V55C9 59.9706 13.0294 64 18 64H222C226.971 64 231 59.9706 231 55V18C231 13.0294 226.971 9 222 9Z" stroke="url(#paint0_linear_39_53)" stroke-width="2"/>
<path id="Vector_4" d="M29.7539 43.8281L39.6953 21.5625H46.2188L32.1562 50H27.8398L29.7539 43.8281ZM27.2344 21.5625L30.2227 44.3359L30.2812 50H26.1602L21.0625 21.5625H27.2344ZM68.9727 35.0195L68.8164 36.3867C68.556 38.2096 68.0677 39.9674 67.3516 41.6602C66.6354 43.3529 65.6979 44.8633 64.5391 46.1914C63.3802 47.5065 62 48.5482 60.3984 49.3164C58.8099 50.0716 57.0065 50.4297 54.9883 50.3906C53.0612 50.3516 51.4271 49.9349 50.0859 49.1406C48.7578 48.3333 47.7031 47.2656 46.9219 45.9375C46.1536 44.6094 45.6393 43.1315 45.3789 41.5039C45.1185 39.8633 45.0924 38.1836 45.3008 36.4648L45.457 35.1172C45.7174 33.2943 46.2057 31.543 46.9219 29.8633C47.651 28.1836 48.5951 26.6862 49.7539 25.3711C50.9258 24.043 52.306 23.0013 53.8945 22.2461C55.4961 21.4909 57.293 21.1328 59.2852 21.1719C61.2122 21.1979 62.8398 21.6146 64.168 22.4219C65.5091 23.2161 66.5638 24.2773 67.332 25.6055C68.1133 26.9206 68.6341 28.3984 68.8945 30.0391C69.1549 31.6667 69.181 33.3268 68.9727 35.0195ZM63.0156 36.4648L63.2109 35.0586C63.3151 34.1732 63.3672 33.2161 63.3672 32.1875C63.3802 31.1458 63.263 30.1497 63.0156 29.1992C62.7682 28.2357 62.3255 27.4479 61.6875 26.8359C61.0625 26.2109 60.1576 25.8724 58.9727 25.8203C57.6966 25.7812 56.6029 26.0352 55.6914 26.582C54.793 27.1289 54.0378 27.8711 53.4258 28.8086C52.8268 29.7331 52.3516 30.7487 52 31.8555C51.6615 32.9492 51.4141 34.0234 51.2578 35.0781L51.082 36.4844C50.9648 37.3568 50.8997 38.3203 50.8867 39.375C50.8867 40.4167 51.0104 41.4193 51.2578 42.3828C51.5052 43.3333 51.9479 44.1211 52.5859 44.7461C53.224 45.3711 54.1354 45.7096 55.3203 45.7617C56.5833 45.8008 57.6641 45.5404 58.5625 44.9805C59.474 44.4206 60.2357 43.6784 60.8477 42.7539C61.4596 41.8164 61.9414 40.8008 62.293 39.707C62.6445 38.6003 62.8854 37.5195 63.0156 36.4648ZM90.809 45.4297L90.027 50H70.4375L71.2383 45.4297H90.809ZM94.051 25.0781L73.1523 50H68.9531L69.5977 46.3867L90.594 21.5625H94.676L94.051 25.0781ZM92.723 21.5625L91.922 26.1523H73.0938L73.9141 21.5625H92.723Z" fill="#1351B4"/>
<path id="Vector_5" d="M103.312 48.0312L105.047 38H107.258L105.18 50H103.203L103.312 48.0312ZM98.5 45.9375L98.516 45.7656C98.583 45.25 98.703 44.7292 98.875 44.2031C99.052 43.6771 99.292 43.1979 99.594 42.7656C99.901 42.3333 100.279 41.9896 100.727 41.7344C101.174 41.4792 101.706 41.362 102.32 41.3828C102.846 41.4036 103.281 41.5521 103.625 41.8281C103.969 42.099 104.234 42.4505 104.422 42.8828C104.615 43.3099 104.745 43.7656 104.812 44.25C104.885 44.7292 104.914 45.1849 104.898 45.6172L104.859 45.9922C104.776 46.4557 104.635 46.9349 104.438 47.4297C104.245 47.9193 103.992 48.375 103.68 48.7969C103.372 49.2135 103.005 49.5495 102.578 49.8047C102.156 50.0599 101.674 50.1797 101.133 50.1641C100.565 50.1484 100.099 50.0104 99.734 49.75C99.375 49.4844 99.096 49.1432 98.898 48.7266C98.701 48.3099 98.573 47.8568 98.516 47.3672C98.458 46.8776 98.453 46.401 98.5 45.9375ZM100.727 45.7578L100.711 45.9219C100.69 46.1458 100.677 46.3984 100.672 46.6797C100.672 46.9557 100.701 47.224 100.758 47.4844C100.82 47.7396 100.932 47.9531 101.094 48.125C101.26 48.2917 101.5 48.3828 101.812 48.3984C102.208 48.4141 102.549 48.3229 102.836 48.125C103.122 47.9219 103.352 47.6615 103.523 47.3438C103.701 47.026 103.818 46.6927 103.875 46.3438L104.023 45.3047C104.049 45.0651 104.049 44.8229 104.023 44.5781C103.997 44.3333 103.938 44.1042 103.844 43.8906C103.755 43.6771 103.62 43.5026 103.438 43.3672C103.26 43.2318 103.029 43.1615 102.742 43.1562C102.393 43.1406 102.096 43.2161 101.852 43.3828C101.612 43.5443 101.417 43.7578 101.266 44.0234C101.115 44.2839 100.995 44.5677 100.906 44.875C100.823 45.1823 100.763 45.4766 100.727 45.7578ZM107.242 45.9062L107.266 45.7422C107.328 45.1432 107.471 44.5807 107.695 44.0547C107.924 43.5234 108.227 43.0573 108.602 42.6562C108.982 42.25 109.427 41.9349 109.938 41.7109C110.453 41.4818 111.031 41.375 111.672 41.3906C112.281 41.401 112.807 41.5234 113.25 41.7578C113.693 41.9922 114.055 42.3073 114.336 42.7031C114.622 43.099 114.823 43.5521 114.938 44.0625C115.057 44.5729 115.091 45.112 115.039 45.6797L115.023 45.8516C114.956 46.4453 114.805 47.0052 114.57 47.5312C114.341 48.0521 114.036 48.513 113.656 48.9141C113.281 49.3099 112.836 49.6198 112.32 49.8438C111.805 50.0677 111.232 50.1719 110.602 50.1562C110.003 50.1458 109.479 50.026 109.031 49.7969C108.583 49.5625 108.219 49.25 107.938 48.8594C107.656 48.4635 107.458 48.013 107.344 47.5078C107.229 47.0026 107.195 46.4688 107.242 45.9062ZM109.461 45.7422L109.445 45.9141C109.419 46.1641 109.411 46.4323 109.422 46.7188C109.432 47 109.477 47.2682 109.555 47.5234C109.638 47.7786 109.773 47.987 109.961 48.1484C110.148 48.3099 110.406 48.3958 110.734 48.4062C111.083 48.4167 111.383 48.3464 111.633 48.1953C111.883 48.0443 112.089 47.8411 112.25 47.5859C112.411 47.3255 112.539 47.0443 112.633 46.7422C112.727 46.4349 112.789 46.1354 112.82 45.8438L112.836 45.6797C112.857 45.4297 112.862 45.1615 112.852 44.875C112.846 44.5833 112.802 44.3099 112.719 44.0547C112.635 43.7943 112.5 43.5807 112.312 43.4141C112.125 43.2474 111.867 43.1589 111.539 43.1484C111.19 43.1328 110.891 43.2057 110.641 43.3672C110.391 43.5234 110.185 43.7318 110.023 43.9922C109.862 44.2526 109.734 44.5365 109.641 44.8438C109.552 45.151 109.492 45.4505 109.461 45.7422Z" fill="#6D6E71"/>
<path id="Vector_6" d="M131.789 39.8828L124.426 39.8633L125.227 35.293L131.984 35.3125C132.948 35.3125 133.833 35.1432 134.641 34.8047C135.448 34.4531 136.112 33.9453 136.633 33.2812C137.154 32.6172 137.486 31.7839 137.629 30.7812C137.759 29.9349 137.714 29.1732 137.492 28.4961C137.271 27.819 136.88 27.2721 136.32 26.8555C135.76 26.4388 135.038 26.2109 134.152 26.1719L128.82 26.1523L124.68 50H118.957L123.879 21.5625L134.328 21.582C136.138 21.6211 137.753 22.0117 139.172 22.7539C140.591 23.4831 141.685 24.5247 142.453 25.8789C143.234 27.2201 143.547 28.8411 143.391 30.7422C143.221 32.8125 142.577 34.5247 141.457 35.8789C140.337 37.2331 138.924 38.2422 137.219 38.9062C135.526 39.5573 133.716 39.8828 131.789 39.8828ZM169.23 35.0195L169.074 36.3867C168.814 38.2096 168.326 39.9674 167.609 41.6602C166.893 43.3529 165.956 44.8633 164.797 46.1914C163.638 47.5065 162.258 48.5482 160.656 49.3164C159.068 50.0716 157.264 50.4297 155.246 50.3906C153.319 50.3516 151.685 49.9349 150.344 49.1406C149.016 48.3333 147.961 47.2656 147.18 45.9375C146.411 44.6094 145.897 43.1315 145.637 41.5039C145.376 39.8633 145.35 38.1836 145.559 36.4648L145.715 35.1172C145.975 33.2943 146.464 31.543 147.18 29.8633C147.909 28.1836 148.853 26.6862 150.012 25.3711C151.184 24.043 152.564 23.0013 154.152 22.2461C155.754 21.4909 157.551 21.1328 159.543 21.1719C161.47 21.1979 163.098 21.6146 164.426 22.4219C165.767 23.2161 166.822 24.2773 167.59 25.6055C168.371 26.9206 168.892 28.3984 169.152 30.0391C169.413 31.6667 169.439 33.3268 169.23 35.0195ZM163.273 36.4648L163.469 35.0586C163.573 34.1732 163.625 33.2161 163.625 32.1875C163.638 31.1458 163.521 30.1497 163.273 29.1992C163.026 28.2357 162.583 27.4479 161.945 26.8359C161.32 26.2109 160.415 25.8724 159.23 25.8203C157.954 25.7812 156.861 26.0352 155.949 26.582C155.051 27.1289 154.296 27.8711 153.684 28.8086C153.085 29.7331 152.609 30.7487 152.258 31.8555C151.919 32.9492 151.672 34.0234 151.516 35.0781L151.34 36.4844C151.223 37.3568 151.158 38.3203 151.145 39.375C151.145 40.4167 151.268 41.4193 151.516 42.3828C151.763 43.3333 152.206 44.1211 152.844 44.7461C153.482 45.3711 154.393 45.7096 155.578 45.7617C156.841 45.8008 157.922 45.5404 158.82 44.9805C159.732 44.4206 160.493 43.6784 161.105 42.7539C161.717 41.8164 162.199 40.8008 162.551 39.707C162.902 38.6003 163.143 37.5195 163.273 36.4648ZM181.418 43.8281L191.359 21.5625H197.883L183.82 50H179.504L181.418 43.8281ZM178.898 21.5625L181.887 44.3359L181.945 50H177.824L172.727 21.5625H178.898ZM220.637 35.0195L220.48 36.3867C220.22 38.2096 219.732 39.9674 219.016 41.6602C218.299 43.3529 217.362 44.8633 216.203 46.1914C215.044 47.5065 213.664 48.5482 212.062 49.3164C210.474 50.0716 208.671 50.4297 206.652 50.3906C204.725 50.3516 203.091 49.9349 201.75 49.1406C200.422 48.3333 199.367 47.2656 198.586 45.9375C197.818 44.6094 197.303 43.1315 197.043 41.5039C196.783 39.8633 196.757 38.1836 196.965 36.4648L197.121 35.1172C197.382 33.2943 197.87 31.543 198.586 29.8633C199.315 28.1836 200.259 26.6862 201.418 25.3711C202.59 24.043 203.97 23.0013 205.559 22.2461C207.16 21.4909 208.957 21.1328 210.949 21.1719C212.876 21.1979 214.504 21.6146 215.832 22.4219C217.173 23.2161 218.228 24.2773 218.996 25.6055C219.777 26.9206 220.298 28.3984 220.559 30.0391C220.819 31.6667 220.845 33.3268 220.637 35.0195ZM214.68 36.4648L214.875 35.0586C214.979 34.1732 215.031 33.2161 215.031 32.1875C215.044 31.1458 214.927 30.1497 214.68 29.1992C214.432 28.2357 213.99 27.4479 213.352 26.8359C212.727 26.2109 211.822 25.8724 210.637 25.8203C209.361 25.7812 208.267 26.0352 207.355 26.582C206.457 27.1289 205.702 27.8711 205.09 28.8086C204.491 29.7331 204.016 30.7487 203.664 31.8555C203.326 32.9492 203.078 34.0234 202.922 35.0781L202.746 36.4844C202.629 37.3568 202.564 38.3203 202.551 39.375C202.551 40.4167 202.674 41.4193 202.922 42.3828C203.169 43.3333 203.612 44.1211 204.25 44.7461C204.888 45.3711 205.799 45.7096 206.984 45.7617C208.247 45.8008 209.328 45.5404 210.227 44.9805C211.138 44.4206 211.9 43.6784 212.512 42.7539C213.124 41.8164 213.605 40.8008 213.957 39.707C214.309 38.6003 214.549 37.5195 214.68 36.4648Z" fill="#FABA00"/>
<path id="Vector_7" d="M153 54H57V65H153V54Z" fill="white"/>
<path id="Vector_8" d="M69.1602 64.4336L65.3516 64.4238L65.625 62.8906L69.209 62.9004C69.821 62.9004 70.3809 62.7962 70.8887 62.5879C71.403 62.3796 71.8262 62.0671 72.1582 61.6504C72.4967 61.2337 72.7051 60.7031 72.7832 60.0586C72.8548 59.5052 72.7995 59.0299 72.6172 58.6328C72.4414 58.2292 72.1615 57.9167 71.7773 57.6953C71.3932 57.474 70.9277 57.3535 70.3809 57.334L67.0215 57.3242L64.8242 70H62.9785L65.4492 55.7812L70.4297 55.791C71.276 55.8105 72.028 55.9896 72.6855 56.3281C73.3496 56.6602 73.8574 57.1387 74.209 57.7637C74.5605 58.3887 74.6973 59.1471 74.6191 60.0391C74.5345 61.0417 74.235 61.8685 73.7207 62.5195C73.2129 63.1706 72.5586 63.6523 71.7578 63.9648C70.9635 64.2773 70.0977 64.4336 69.1602 64.4336ZM81.2305 68.1934L82.109 62.7344C82.155 62.3307 82.116 61.9759 81.9922 61.6699C81.875 61.3639 81.6764 61.1263 81.3965 60.957C81.123 60.7878 80.778 60.6966 80.3613 60.6836C79.9967 60.6771 79.6387 60.7357 79.2871 60.8594C78.9421 60.9831 78.6426 61.1686 78.3887 61.416C78.1348 61.6634 77.9688 61.9759 77.8906 62.3535L76.1328 62.3633C76.1784 61.8359 76.3444 61.377 76.6309 60.9863C76.9173 60.5892 77.2754 60.2604 77.7051 60C78.1348 59.7331 78.597 59.5378 79.0918 59.4141C79.5866 59.2839 80.0684 59.222 80.5371 59.2285C81.2467 59.2415 81.862 59.3945 82.383 59.6875C82.91 59.974 83.307 60.3776 83.574 60.8984C83.841 61.4193 83.939 62.0443 83.867 62.7734L83.057 67.6953C82.998 68.0534 82.962 68.4147 82.949 68.7793C82.943 69.1374 82.985 69.4889 83.076 69.834L83.057 70L81.2695 70.0098C81.1979 69.7103 81.1621 69.4076 81.1621 69.1016C81.1686 68.7956 81.1914 68.4928 81.2305 68.1934ZM82.314 63.5938L82.109 64.8633L80.4395 64.8535C80.0879 64.8535 79.7168 64.8796 79.3262 64.9316C78.9355 64.9837 78.5645 65.0814 78.2129 65.2246C77.8613 65.3678 77.5651 65.5762 77.3242 65.8496C77.0833 66.1165 76.9368 66.4648 76.8848 66.8945C76.8457 67.2461 76.888 67.5521 77.0117 67.8125C77.1419 68.0664 77.3372 68.265 77.5977 68.4082C77.8581 68.5514 78.1608 68.6263 78.5059 68.6328C78.9551 68.6393 79.3978 68.5514 79.834 68.3691C80.2702 68.1868 80.651 67.9264 80.9766 67.5879C81.3021 67.2493 81.5267 66.8587 81.6504 66.416L82.295 67.2852C82.171 67.7148 81.9694 68.112 81.6895 68.4766C81.4095 68.8346 81.0775 69.1439 80.6934 69.4043C80.3158 69.6647 79.9089 69.8665 79.4727 70.0098C79.0365 70.153 78.6003 70.2214 78.1641 70.2148C77.5716 70.2018 77.0345 70.0684 76.5527 69.8145C76.0775 69.5605 75.6999 69.2057 75.4199 68.75C75.1465 68.2878 75.0293 67.7507 75.0684 67.1387C75.1074 66.4681 75.2832 65.9049 75.5957 65.4492C75.9082 64.9935 76.3086 64.6289 76.7969 64.3555C77.2917 64.082 77.832 63.8867 78.418 63.7695C79.0039 63.6458 79.5833 63.584 80.1562 63.584L82.314 63.5938ZM88.711 61.1719L87.178 70H85.41L87.246 59.4336H88.965L88.711 61.1719ZM92.139 59.3457L91.973 61.0449C91.836 61.0189 91.696 60.9961 91.553 60.9766C91.416 60.957 91.279 60.9473 91.143 60.9473C90.719 60.9408 90.339 61.0059 90 61.1426C89.668 61.2728 89.372 61.4583 89.111 61.6992C88.857 61.9401 88.639 62.2233 88.457 62.5488C88.281 62.8743 88.141 63.2259 88.037 63.6035L87.48 63.8965C87.552 63.3691 87.669 62.8288 87.832 62.2754C88.001 61.722 88.232 61.2109 88.525 60.7422C88.825 60.2734 89.199 59.8958 89.648 59.6094C90.104 59.3229 90.651 59.1895 91.289 59.209C91.432 59.209 91.572 59.222 91.709 59.248C91.852 59.2741 91.995 59.3066 92.139 59.3457ZM97.988 68.1934L98.867 62.7344C98.913 62.3307 98.874 61.9759 98.75 61.6699C98.633 61.3639 98.434 61.1263 98.154 60.957C97.881 60.7878 97.536 60.6966 97.119 60.6836C96.755 60.6771 96.396 60.7357 96.045 60.8594C95.7 60.9831 95.4 61.1686 95.146 61.416C94.893 61.6634 94.727 61.9759 94.648 62.3535L92.891 62.3633C92.936 61.8359 93.102 61.377 93.389 60.9863C93.675 60.5892 94.033 60.2604 94.463 60C94.893 59.7331 95.355 59.5378 95.85 59.4141C96.344 59.2839 96.826 59.222 97.295 59.2285C98.005 59.2415 98.62 59.3945 99.141 59.6875C99.668 59.974 100.065 60.3776 100.332 60.8984C100.599 61.4193 100.697 62.0443 100.625 62.7734L99.814 67.6953C99.756 68.0534 99.72 68.4147 99.707 68.7793C99.701 69.1374 99.743 69.4889 99.834 69.834L99.814 70L98.027 70.0098C97.956 69.7103 97.92 69.4076 97.92 69.1016C97.926 68.7956 97.949 68.4928 97.988 68.1934ZM99.072 63.5938L98.867 64.8633L97.197 64.8535C96.846 64.8535 96.475 64.8796 96.084 64.9316C95.693 64.9837 95.322 65.0814 94.971 65.2246C94.619 65.3678 94.323 65.5762 94.082 65.8496C93.841 66.1165 93.695 66.4648 93.643 66.8945C93.604 67.2461 93.646 67.5521 93.77 67.8125C93.9 68.0664 94.095 68.265 94.355 68.4082C94.616 68.5514 94.919 68.6263 95.264 68.6328C95.713 68.6393 96.156 68.5514 96.592 68.3691C97.028 68.1868 97.409 67.9264 97.734 67.5879C98.06 67.2493 98.285 66.8587 98.408 66.416L99.053 67.2852C98.929 67.7148 98.727 68.112 98.447 68.4766C98.167 68.8346 97.835 69.1439 97.451 69.4043C97.074 69.6647 96.667 69.8665 96.23 70.0098C95.794 70.153 95.358 70.2214 94.922 70.2148C94.329 70.2018 93.792 70.0684 93.311 69.8145C92.835 69.5605 92.458 69.2057 92.178 68.75C91.904 68.2878 91.787 67.7507 91.826 67.1387C91.865 66.4681 92.041 65.9049 92.354 65.4492C92.666 64.9935 93.066 64.6289 93.555 64.3555C94.049 64.082 94.59 63.8867 95.176 63.7695C95.762 63.6458 96.341 63.584 96.914 63.584L99.072 63.5938ZM105.361 61.7969L103.936 70H102.168L104.004 59.4336H105.674L105.361 61.7969ZM104.541 64.3164L103.818 64.2969C103.91 63.6654 104.076 63.0469 104.316 62.4414C104.564 61.8294 104.886 61.2793 105.283 60.791C105.687 60.3027 106.165 59.9186 106.719 59.6387C107.279 59.3522 107.917 59.2188 108.633 59.2383C109.199 59.2513 109.671 59.362 110.049 59.5703C110.433 59.7721 110.732 60.0488 110.947 60.4004C111.162 60.752 111.305 61.1589 111.377 61.6211C111.449 62.0768 111.455 62.5618 111.396 63.0762L110.244 70H108.467L109.639 63.0469C109.684 62.6237 109.668 62.2428 109.59 61.9043C109.518 61.5592 109.355 61.2858 109.102 61.084C108.854 60.8757 108.496 60.765 108.027 60.752C107.533 60.7389 107.087 60.8333 106.689 61.0352C106.292 61.237 105.944 61.5137 105.645 61.8652C105.352 62.2103 105.111 62.5977 104.922 63.0273C104.74 63.4505 104.613 63.8802 104.541 64.3164ZM119.277 68.1934L120.156 62.7344C120.202 62.3307 120.163 61.9759 120.039 61.6699C119.922 61.3639 119.723 61.1263 119.443 60.957C119.17 60.7878 118.825 60.6966 118.408 60.6836C118.044 60.6771 117.686 60.7357 117.334 60.8594C116.989 60.9831 116.689 61.1686 116.436 61.416C116.182 61.6634 116.016 61.9759 115.938 62.3535L114.18 62.3633C114.225 61.8359 114.391 61.377 114.678 60.9863C114.964 60.5892 115.322 60.2604 115.752 60C116.182 59.7331 116.644 59.5378 117.139 59.4141C117.633 59.2839 118.115 59.222 118.584 59.2285C119.294 59.2415 119.909 59.3945 120.43 59.6875C120.957 59.974 121.354 60.3776 121.621 60.8984C121.888 61.4193 121.986 62.0443 121.914 62.7734L121.104 67.6953C121.045 68.0534 121.009 68.4147 120.996 68.7793C120.99 69.1374 121.032 69.4889 121.123 69.834L121.104 70L119.316 70.0098C119.245 69.7103 119.209 69.4076 119.209 69.1016C119.215 68.7956 119.238 68.4928 119.277 68.1934ZM120.361 63.5938L120.156 64.8633L118.486 64.8535C118.135 64.8535 117.764 64.8796 117.373 64.9316C116.982 64.9837 116.611 65.0814 116.26 65.2246C115.908 65.3678 115.612 65.5762 115.371 65.8496C115.13 66.1165 114.984 66.4648 114.932 66.8945C114.893 67.2461 114.935 67.5521 115.059 67.8125C115.189 68.0664 115.384 68.265 115.645 68.4082C115.905 68.5514 116.208 68.6263 116.553 68.6328C117.002 68.6393 117.445 68.5514 117.881 68.3691C118.317 68.1868 118.698 67.9264 119.023 67.5879C119.349 67.2493 119.574 66.8587 119.697 66.416L120.342 67.2852C120.218 67.7148 120.016 68.112 119.736 68.4766C119.456 68.8346 119.124 69.1439 118.74 69.4043C118.363 69.6647 117.956 69.8665 117.52 70.0098C117.083 70.153 116.647 70.2214 116.211 70.2148C115.618 70.2018 115.081 70.0684 114.6 69.8145C114.124 69.5605 113.747 69.2057 113.467 68.75C113.193 68.2878 113.076 67.7507 113.115 67.1387C113.154 66.4681 113.33 65.9049 113.643 65.4492C113.955 64.9935 114.355 64.6289 114.844 64.3555C115.339 64.082 115.879 63.8867 116.465 63.7695C117.051 63.6458 117.63 63.584 118.203 63.584L120.361 63.5938ZM126.787 68.2812L130.947 59.4336H132.812L127.471 70H126.23L126.787 68.2812ZM125.811 59.4336L127.314 68.5059L127.266 70H126.133L124.062 59.4336H125.811ZM138.926 68.1934L139.805 62.7344C139.85 62.3307 139.811 61.9759 139.688 61.6699C139.57 61.3639 139.372 61.1263 139.092 60.957C138.818 60.7878 138.473 60.6966 138.057 60.6836C137.692 60.6771 137.334 60.7357 136.982 60.8594C136.637 60.9831 136.338 61.1686 136.084 61.416C135.83 61.6634 135.664 61.9759 135.586 62.3535L133.828 62.3633C133.874 61.8359 134.04 61.377 134.326 60.9863C134.613 60.5892 134.971 60.2604 135.4 60C135.83 59.7331 136.292 59.5378 136.787 59.4141C137.282 59.2839 137.764 59.222 138.232 59.2285C138.942 59.2415 139.557 59.3945 140.078 59.6875C140.605 59.974 141.003 60.3776 141.27 60.8984C141.536 61.4193 141.634 62.0443 141.562 62.7734L140.752 67.6953C140.693 68.0534 140.658 68.4147 140.645 68.7793C140.638 69.1374 140.68 69.4889 140.771 69.834L140.752 70L138.965 70.0098C138.893 69.7103 138.857 69.4076 138.857 69.1016C138.864 68.7956 138.887 68.4928 138.926 68.1934ZM140.01 63.5938L139.805 64.8633L138.135 64.8535C137.783 64.8535 137.412 64.8796 137.021 64.9316C136.631 64.9837 136.26 65.0814 135.908 65.2246C135.557 65.3678 135.26 65.5762 135.02 65.8496C134.779 66.1165 134.632 66.4648 134.58 66.8945C134.541 67.2461 134.583 67.5521 134.707 67.8125C134.837 68.0664 135.033 68.265 135.293 68.4082C135.553 68.5514 135.856 68.6263 136.201 68.6328C136.65 68.6393 137.093 68.5514 137.529 68.3691C137.965 68.1868 138.346 67.9264 138.672 67.5879C138.997 67.2493 139.222 66.8587 139.346 66.416L139.99 67.2852C139.867 67.7148 139.665 68.112 139.385 68.4766C139.105 68.8346 138.773 69.1439 138.389 69.4043C138.011 69.6647 137.604 69.8665 137.168 70.0098C136.732 70.153 136.296 70.2214 135.859 70.2148C135.267 70.2018 134.73 70.0684 134.248 69.8145C133.773 69.5605 133.395 69.2057 133.115 68.75C132.842 68.2878 132.725 67.7507 132.764 67.1387C132.803 66.4681 132.979 65.9049 133.291 65.4492C133.604 64.9935 134.004 64.6289 134.492 64.3555C134.987 64.082 135.527 63.8867 136.113 63.7695C136.699 63.6458 137.279 63.584 137.852 63.584L140.01 63.5938ZM146.846 59.4336L145.01 70H143.252L145.088 59.4336H146.846ZM145.244 57.8906L147.539 55.0195H149.785L146.797 57.8906H145.244Z" fill="#6D6E71"/>
</g>
<defs>
<linearGradient id="paint0_linear_39_53" x1="8" y1="65" x2="231.484" y2="6.0445" gradientUnits="userSpaceOnUse">
<stop stop-color="#1351B4"/>
<stop offset="1" stop-color="#FABA00"/>
</linearGradient>
</defs>
</svg>
