<svg width="240" height="240" viewBox="0 0 240 240" fill="none" xmlns="http://www.w3.org/2000/svg">
<rect width="240" height="240" rx="30" fill="white"/>
<rect y="84" width="240" height="73" rx="10" fill="white"/>
<rect x="9" y="93" width="222" height="55" rx="9" fill="white"/>
<rect x="9" y="93" width="222" height="55" rx="9" stroke="url(#paint0_linear_41_64)" stroke-width="2"/>
<path d="M29.7539 127.828L39.6953 105.562H46.2188L32.1562 134H27.8398L29.7539 127.828ZM27.2344 105.562L30.2227 128.336L30.2812 134H26.1602L21.0625 105.562H27.2344ZM68.9727 119.02L68.8164 120.387C68.556 122.21 68.0677 123.967 67.3516 125.66C66.6354 127.353 65.6979 128.863 64.5391 130.191C63.3802 131.507 62 132.548 60.3984 133.316C58.8099 134.072 57.0065 134.43 54.9883 134.391C53.0612 134.352 51.4271 133.935 50.0859 133.141C48.7578 132.333 47.7031 131.266 46.9219 129.938C46.1536 128.609 45.6393 127.132 45.3789 125.504C45.1185 123.863 45.0924 122.184 45.3008 120.465L45.457 119.117C45.7174 117.294 46.2057 115.543 46.9219 113.863C47.651 112.184 48.5951 110.686 49.7539 109.371C50.9258 108.043 52.306 107.001 53.8945 106.246C55.4961 105.491 57.293 105.133 59.2852 105.172C61.2122 105.198 62.8398 105.615 64.168 106.422C65.5091 107.216 66.5638 108.277 67.332 109.605C68.1133 110.921 68.6341 112.398 68.8945 114.039C69.1549 115.667 69.181 117.327 68.9727 119.02ZM63.0156 120.465L63.2109 119.059C63.3151 118.173 63.3672 117.216 63.3672 116.188C63.3802 115.146 63.263 114.15 63.0156 113.199C62.7682 112.236 62.3255 111.448 61.6875 110.836C61.0625 110.211 60.1576 109.872 58.9727 109.82C57.6966 109.781 56.6029 110.035 55.6914 110.582C54.793 111.129 54.0378 111.871 53.4258 112.809C52.8268 113.733 52.3516 114.749 52 115.855C51.6615 116.949 51.4141 118.023 51.2578 119.078L51.082 120.484C50.9648 121.357 50.8997 122.32 50.8867 123.375C50.8867 124.417 51.0104 125.419 51.2578 126.383C51.5052 127.333 51.9479 128.121 52.5859 128.746C53.224 129.371 54.1354 129.71 55.3203 129.762C56.5833 129.801 57.6641 129.54 58.5625 128.98C59.474 128.421 60.2357 127.678 60.8477 126.754C61.4596 125.816 61.9414 124.801 62.293 123.707C62.6445 122.6 62.8854 121.52 63.0156 120.465ZM90.8086 129.43L90.0273 134H70.4375L71.2383 129.43H90.8086ZM94.0508 109.078L73.1523 134H68.9531L69.5977 130.387L90.5938 105.562H94.6758L94.0508 109.078ZM92.7227 105.562L91.9219 110.152H73.0938L73.9141 105.562H92.7227Z" fill="#1351B4"/>
<path d="M103.312 132.031L105.047 122H107.258L105.18 134H103.203L103.312 132.031ZM98.5 129.938L98.5156 129.766C98.5833 129.25 98.7031 128.729 98.875 128.203C99.0521 127.677 99.2917 127.198 99.5938 126.766C99.901 126.333 100.279 125.99 100.727 125.734C101.174 125.479 101.706 125.362 102.32 125.383C102.846 125.404 103.281 125.552 103.625 125.828C103.969 126.099 104.234 126.451 104.422 126.883C104.615 127.31 104.745 127.766 104.812 128.25C104.885 128.729 104.914 129.185 104.898 129.617L104.859 129.992C104.776 130.456 104.635 130.935 104.438 131.43C104.245 131.919 103.992 132.375 103.68 132.797C103.372 133.214 103.005 133.549 102.578 133.805C102.156 134.06 101.674 134.18 101.133 134.164C100.565 134.148 100.099 134.01 99.7344 133.75C99.375 133.484 99.0964 133.143 98.8984 132.727C98.7005 132.31 98.5729 131.857 98.5156 131.367C98.4583 130.878 98.4531 130.401 98.5 129.938ZM100.727 129.758L100.711 129.922C100.69 130.146 100.677 130.398 100.672 130.68C100.672 130.956 100.701 131.224 100.758 131.484C100.82 131.74 100.932 131.953 101.094 132.125C101.26 132.292 101.5 132.383 101.812 132.398C102.208 132.414 102.549 132.323 102.836 132.125C103.122 131.922 103.352 131.661 103.523 131.344C103.701 131.026 103.818 130.693 103.875 130.344L104.023 129.305C104.049 129.065 104.049 128.823 104.023 128.578C103.997 128.333 103.938 128.104 103.844 127.891C103.755 127.677 103.62 127.503 103.438 127.367C103.26 127.232 103.029 127.161 102.742 127.156C102.393 127.141 102.096 127.216 101.852 127.383C101.612 127.544 101.417 127.758 101.266 128.023C101.115 128.284 100.995 128.568 100.906 128.875C100.823 129.182 100.763 129.477 100.727 129.758ZM107.242 129.906L107.266 129.742C107.328 129.143 107.471 128.581 107.695 128.055C107.924 127.523 108.227 127.057 108.602 126.656C108.982 126.25 109.427 125.935 109.938 125.711C110.453 125.482 111.031 125.375 111.672 125.391C112.281 125.401 112.807 125.523 113.25 125.758C113.693 125.992 114.055 126.307 114.336 126.703C114.622 127.099 114.823 127.552 114.938 128.062C115.057 128.573 115.091 129.112 115.039 129.68L115.023 129.852C114.956 130.445 114.805 131.005 114.57 131.531C114.341 132.052 114.036 132.513 113.656 132.914C113.281 133.31 112.836 133.62 112.32 133.844C111.805 134.068 111.232 134.172 110.602 134.156C110.003 134.146 109.479 134.026 109.031 133.797C108.583 133.562 108.219 133.25 107.938 132.859C107.656 132.464 107.458 132.013 107.344 131.508C107.229 131.003 107.195 130.469 107.242 129.906ZM109.461 129.742L109.445 129.914C109.419 130.164 109.411 130.432 109.422 130.719C109.432 131 109.477 131.268 109.555 131.523C109.638 131.779 109.773 131.987 109.961 132.148C110.148 132.31 110.406 132.396 110.734 132.406C111.083 132.417 111.383 132.346 111.633 132.195C111.883 132.044 112.089 131.841 112.25 131.586C112.411 131.326 112.539 131.044 112.633 130.742C112.727 130.435 112.789 130.135 112.82 129.844L112.836 129.68C112.857 129.43 112.862 129.161 112.852 128.875C112.846 128.583 112.802 128.31 112.719 128.055C112.635 127.794 112.5 127.581 112.312 127.414C112.125 127.247 111.867 127.159 111.539 127.148C111.19 127.133 110.891 127.206 110.641 127.367C110.391 127.523 110.185 127.732 110.023 127.992C109.862 128.253 109.734 128.536 109.641 128.844C109.552 129.151 109.492 129.451 109.461 129.742Z" fill="#6D6E71"/>
<path d="M131.789 123.883L124.426 123.863L125.227 119.293L131.984 119.312C132.948 119.312 133.833 119.143 134.641 118.805C135.448 118.453 136.112 117.945 136.633 117.281C137.154 116.617 137.486 115.784 137.629 114.781C137.759 113.935 137.714 113.173 137.492 112.496C137.271 111.819 136.88 111.272 136.32 110.855C135.76 110.439 135.038 110.211 134.152 110.172L128.82 110.152L124.68 134H118.957L123.879 105.562L134.328 105.582C136.138 105.621 137.753 106.012 139.172 106.754C140.591 107.483 141.685 108.525 142.453 109.879C143.234 111.22 143.547 112.841 143.391 114.742C143.221 116.812 142.577 118.525 141.457 119.879C140.337 121.233 138.924 122.242 137.219 122.906C135.526 123.557 133.716 123.883 131.789 123.883ZM169.23 119.02L169.074 120.387C168.814 122.21 168.326 123.967 167.609 125.66C166.893 127.353 165.956 128.863 164.797 130.191C163.638 131.507 162.258 132.548 160.656 133.316C159.068 134.072 157.264 134.43 155.246 134.391C153.319 134.352 151.685 133.935 150.344 133.141C149.016 132.333 147.961 131.266 147.18 129.938C146.411 128.609 145.897 127.132 145.637 125.504C145.376 123.863 145.35 122.184 145.559 120.465L145.715 119.117C145.975 117.294 146.464 115.543 147.18 113.863C147.909 112.184 148.853 110.686 150.012 109.371C151.184 108.043 152.564 107.001 154.152 106.246C155.754 105.491 157.551 105.133 159.543 105.172C161.47 105.198 163.098 105.615 164.426 106.422C165.767 107.216 166.822 108.277 167.59 109.605C168.371 110.921 168.892 112.398 169.152 114.039C169.413 115.667 169.439 117.327 169.23 119.02ZM163.273 120.465L163.469 119.059C163.573 118.173 163.625 117.216 163.625 116.188C163.638 115.146 163.521 114.15 163.273 113.199C163.026 112.236 162.583 111.448 161.945 110.836C161.32 110.211 160.415 109.872 159.23 109.82C157.954 109.781 156.861 110.035 155.949 110.582C155.051 111.129 154.296 111.871 153.684 112.809C153.085 113.733 152.609 114.749 152.258 115.855C151.919 116.949 151.672 118.023 151.516 119.078L151.34 120.484C151.223 121.357 151.158 122.32 151.145 123.375C151.145 124.417 151.268 125.419 151.516 126.383C151.763 127.333 152.206 128.121 152.844 128.746C153.482 129.371 154.393 129.71 155.578 129.762C156.841 129.801 157.922 129.54 158.82 128.98C159.732 128.421 160.493 127.678 161.105 126.754C161.717 125.816 162.199 124.801 162.551 123.707C162.902 122.6 163.143 121.52 163.273 120.465ZM181.418 127.828L191.359 105.562H197.883L183.82 134H179.504L181.418 127.828ZM178.898 105.562L181.887 128.336L181.945 134H177.824L172.727 105.562H178.898ZM220.637 119.02L220.48 120.387C220.22 122.21 219.732 123.967 219.016 125.66C218.299 127.353 217.362 128.863 216.203 130.191C215.044 131.507 213.664 132.548 212.062 133.316C210.474 134.072 208.671 134.43 206.652 134.391C204.725 134.352 203.091 133.935 201.75 133.141C200.422 132.333 199.367 131.266 198.586 129.938C197.818 128.609 197.303 127.132 197.043 125.504C196.783 123.863 196.757 122.184 196.965 120.465L197.121 119.117C197.382 117.294 197.87 115.543 198.586 113.863C199.315 112.184 200.259 110.686 201.418 109.371C202.59 108.043 203.97 107.001 205.559 106.246C207.16 105.491 208.957 105.133 210.949 105.172C212.876 105.198 214.504 105.615 215.832 106.422C217.173 107.216 218.228 108.277 218.996 109.605C219.777 110.921 220.298 112.398 220.559 114.039C220.819 115.667 220.845 117.327 220.637 119.02ZM214.68 120.465L214.875 119.059C214.979 118.173 215.031 117.216 215.031 116.188C215.044 115.146 214.927 114.15 214.68 113.199C214.432 112.236 213.99 111.448 213.352 110.836C212.727 110.211 211.822 109.872 210.637 109.82C209.361 109.781 208.267 110.035 207.355 110.582C206.457 111.129 205.702 111.871 205.09 112.809C204.491 113.733 204.016 114.749 203.664 115.855C203.326 116.949 203.078 118.023 202.922 119.078L202.746 120.484C202.629 121.357 202.564 122.32 202.551 123.375C202.551 124.417 202.674 125.419 202.922 126.383C203.169 127.333 203.612 128.121 204.25 128.746C204.888 129.371 205.799 129.71 206.984 129.762C208.247 129.801 209.328 129.54 210.227 128.98C211.138 128.421 211.9 127.678 212.512 126.754C213.124 125.816 213.605 124.801 213.957 123.707C214.309 122.6 214.549 121.52 214.68 120.465Z" fill="#FABA00"/>
<rect width="96" height="11" transform="translate(57 138)" fill="white"/>
<path d="M69.1602 148.434L65.3516 148.424L65.625 146.891L69.209 146.9C69.821 146.9 70.3809 146.796 70.8887 146.588C71.403 146.38 71.8262 146.067 72.1582 145.65C72.4967 145.234 72.7051 144.703 72.7832 144.059C72.8548 143.505 72.7995 143.03 72.6172 142.633C72.4414 142.229 72.1615 141.917 71.7773 141.695C71.3932 141.474 70.9277 141.354 70.3809 141.334L67.0215 141.324L64.8242 154H62.9785L65.4492 139.781L70.4297 139.791C71.276 139.811 72.028 139.99 72.6855 140.328C73.3496 140.66 73.8574 141.139 74.209 141.764C74.5605 142.389 74.6973 143.147 74.6191 144.039C74.5345 145.042 74.235 145.868 73.7207 146.52C73.2129 147.171 72.5586 147.652 71.7578 147.965C70.9635 148.277 70.0977 148.434 69.1602 148.434ZM81.2305 152.193L82.1094 146.734C82.1549 146.331 82.1159 145.976 81.9922 145.67C81.875 145.364 81.6764 145.126 81.3965 144.957C81.123 144.788 80.778 144.697 80.3613 144.684C79.9967 144.677 79.6387 144.736 79.2871 144.859C78.9421 144.983 78.6426 145.169 78.3887 145.416C78.1348 145.663 77.9688 145.976 77.8906 146.354L76.1328 146.363C76.1784 145.836 76.3444 145.377 76.6309 144.986C76.9173 144.589 77.2754 144.26 77.7051 144C78.1348 143.733 78.597 143.538 79.0918 143.414C79.5866 143.284 80.0684 143.222 80.5371 143.229C81.2467 143.242 81.862 143.395 82.3828 143.688C82.9102 143.974 83.3073 144.378 83.5742 144.898C83.8411 145.419 83.9388 146.044 83.8672 146.773L83.0566 151.695C82.998 152.053 82.9622 152.415 82.9492 152.779C82.9427 153.137 82.985 153.489 83.0762 153.834L83.0566 154L81.2695 154.01C81.1979 153.71 81.1621 153.408 81.1621 153.102C81.1686 152.796 81.1914 152.493 81.2305 152.193ZM82.3145 147.594L82.1094 148.863L80.4395 148.854C80.0879 148.854 79.7168 148.88 79.3262 148.932C78.9355 148.984 78.5645 149.081 78.2129 149.225C77.8613 149.368 77.5651 149.576 77.3242 149.85C77.0833 150.117 76.9368 150.465 76.8848 150.895C76.8457 151.246 76.888 151.552 77.0117 151.812C77.1419 152.066 77.3372 152.265 77.5977 152.408C77.8581 152.551 78.1608 152.626 78.5059 152.633C78.9551 152.639 79.3978 152.551 79.834 152.369C80.2702 152.187 80.651 151.926 80.9766 151.588C81.3021 151.249 81.5267 150.859 81.6504 150.416L82.2949 151.285C82.1712 151.715 81.9694 152.112 81.6895 152.477C81.4095 152.835 81.0775 153.144 80.6934 153.404C80.3158 153.665 79.9089 153.867 79.4727 154.01C79.0365 154.153 78.6003 154.221 78.1641 154.215C77.5716 154.202 77.0345 154.068 76.5527 153.814C76.0775 153.561 75.6999 153.206 75.4199 152.75C75.1465 152.288 75.0293 151.751 75.0684 151.139C75.1074 150.468 75.2832 149.905 75.5957 149.449C75.9082 148.993 76.3086 148.629 76.7969 148.355C77.2917 148.082 77.832 147.887 78.418 147.77C79.0039 147.646 79.5833 147.584 80.1562 147.584L82.3145 147.594ZM88.7109 145.172L87.1777 154H85.4102L87.2461 143.434H88.9648L88.7109 145.172ZM92.1387 143.346L91.9727 145.045C91.8359 145.019 91.696 144.996 91.5527 144.977C91.416 144.957 91.2793 144.947 91.1426 144.947C90.7194 144.941 90.3385 145.006 90 145.143C89.668 145.273 89.3717 145.458 89.1113 145.699C88.8574 145.94 88.6393 146.223 88.457 146.549C88.2812 146.874 88.1413 147.226 88.0371 147.604L87.4805 147.896C87.5521 147.369 87.6693 146.829 87.832 146.275C88.0013 145.722 88.2324 145.211 88.5254 144.742C88.8249 144.273 89.1992 143.896 89.6484 143.609C90.1042 143.323 90.651 143.189 91.2891 143.209C91.4323 143.209 91.5723 143.222 91.709 143.248C91.8522 143.274 91.9954 143.307 92.1387 143.346ZM97.9883 152.193L98.8672 146.734C98.9128 146.331 98.8737 145.976 98.75 145.67C98.6328 145.364 98.4342 145.126 98.1543 144.957C97.8809 144.788 97.5358 144.697 97.1191 144.684C96.7546 144.677 96.3965 144.736 96.0449 144.859C95.6999 144.983 95.4004 145.169 95.1465 145.416C94.8926 145.663 94.7266 145.976 94.6484 146.354L92.8906 146.363C92.9362 145.836 93.1022 145.377 93.3887 144.986C93.6751 144.589 94.0332 144.26 94.4629 144C94.8926 143.733 95.3548 143.538 95.8496 143.414C96.3444 143.284 96.8262 143.222 97.2949 143.229C98.0046 143.242 98.6198 143.395 99.1406 143.688C99.668 143.974 100.065 144.378 100.332 144.898C100.599 145.419 100.697 146.044 100.625 146.773L99.8145 151.695C99.7559 152.053 99.7201 152.415 99.707 152.779C99.7005 153.137 99.7428 153.489 99.834 153.834L99.8145 154L98.0273 154.01C97.9557 153.71 97.9199 153.408 97.9199 153.102C97.9264 152.796 97.9492 152.493 97.9883 152.193ZM99.0723 147.594L98.8672 148.863L97.1973 148.854C96.8457 148.854 96.4746 148.88 96.084 148.932C95.6934 148.984 95.3223 149.081 94.9707 149.225C94.6191 149.368 94.3229 149.576 94.082 149.85C93.8411 150.117 93.6947 150.465 93.6426 150.895C93.6035 151.246 93.6458 151.552 93.7695 151.812C93.8997 152.066 94.0951 152.265 94.3555 152.408C94.6159 152.551 94.9186 152.626 95.2637 152.633C95.7129 152.639 96.1556 152.551 96.5918 152.369C97.028 152.187 97.4089 151.926 97.7344 151.588C98.0599 151.249 98.2845 150.859 98.4082 150.416L99.0527 151.285C98.929 151.715 98.7272 152.112 98.4473 152.477C98.1673 152.835 97.8353 153.144 97.4512 153.404C97.0736 153.665 96.6667 153.867 96.2305 154.01C95.7943 154.153 95.3581 154.221 94.9219 154.215C94.3294 154.202 93.7923 154.068 93.3105 153.814C92.8353 153.561 92.4577 153.206 92.1777 152.75C91.9043 152.288 91.7871 151.751 91.8262 151.139C91.8652 150.468 92.041 149.905 92.3535 149.449C92.666 148.993 93.0664 148.629 93.5547 148.355C94.0495 148.082 94.5898 147.887 95.1758 147.77C95.7617 147.646 96.3411 147.584 96.9141 147.584L99.0723 147.594ZM105.361 145.797L103.936 154H102.168L104.004 143.434H105.674L105.361 145.797ZM104.541 148.316L103.818 148.297C103.91 147.665 104.076 147.047 104.316 146.441C104.564 145.829 104.886 145.279 105.283 144.791C105.687 144.303 106.165 143.919 106.719 143.639C107.279 143.352 107.917 143.219 108.633 143.238C109.199 143.251 109.671 143.362 110.049 143.57C110.433 143.772 110.732 144.049 110.947 144.4C111.162 144.752 111.305 145.159 111.377 145.621C111.449 146.077 111.455 146.562 111.396 147.076L110.244 154H108.467L109.639 147.047C109.684 146.624 109.668 146.243 109.59 145.904C109.518 145.559 109.355 145.286 109.102 145.084C108.854 144.876 108.496 144.765 108.027 144.752C107.533 144.739 107.087 144.833 106.689 145.035C106.292 145.237 105.944 145.514 105.645 145.865C105.352 146.21 105.111 146.598 104.922 147.027C104.74 147.451 104.613 147.88 104.541 148.316ZM119.277 152.193L120.156 146.734C120.202 146.331 120.163 145.976 120.039 145.67C119.922 145.364 119.723 145.126 119.443 144.957C119.17 144.788 118.825 144.697 118.408 144.684C118.044 144.677 117.686 144.736 117.334 144.859C116.989 144.983 116.689 145.169 116.436 145.416C116.182 145.663 116.016 145.976 115.938 146.354L114.18 146.363C114.225 145.836 114.391 145.377 114.678 144.986C114.964 144.589 115.322 144.26 115.752 144C116.182 143.733 116.644 143.538 117.139 143.414C117.633 143.284 118.115 143.222 118.584 143.229C119.294 143.242 119.909 143.395 120.43 143.688C120.957 143.974 121.354 144.378 121.621 144.898C121.888 145.419 121.986 146.044 121.914 146.773L121.104 151.695C121.045 152.053 121.009 152.415 120.996 152.779C120.99 153.137 121.032 153.489 121.123 153.834L121.104 154L119.316 154.01C119.245 153.71 119.209 153.408 119.209 153.102C119.215 152.796 119.238 152.493 119.277 152.193ZM120.361 147.594L120.156 148.863L118.486 148.854C118.135 148.854 117.764 148.88 117.373 148.932C116.982 148.984 116.611 149.081 116.26 149.225C115.908 149.368 115.612 149.576 115.371 149.85C115.13 150.117 114.984 150.465 114.932 150.895C114.893 151.246 114.935 151.552 115.059 151.812C115.189 152.066 115.384 152.265 115.645 152.408C115.905 152.551 116.208 152.626 116.553 152.633C117.002 152.639 117.445 152.551 117.881 152.369C118.317 152.187 118.698 151.926 119.023 151.588C119.349 151.249 119.574 150.859 119.697 150.416L120.342 151.285C120.218 151.715 120.016 152.112 119.736 152.477C119.456 152.835 119.124 153.144 118.74 153.404C118.363 153.665 117.956 153.867 117.52 154.01C117.083 154.153 116.647 154.221 116.211 154.215C115.618 154.202 115.081 154.068 114.6 153.814C114.124 153.561 113.747 153.206 113.467 152.75C113.193 152.288 113.076 151.751 113.115 151.139C113.154 150.468 113.33 149.905 113.643 149.449C113.955 148.993 114.355 148.629 114.844 148.355C115.339 148.082 115.879 147.887 116.465 147.77C117.051 147.646 117.63 147.584 118.203 147.584L120.361 147.594ZM126.787 152.281L130.947 143.434H132.812L127.471 154H126.23L126.787 152.281ZM125.811 143.434L127.314 152.506L127.266 154H126.133L124.062 143.434H125.811ZM138.926 152.193L139.805 146.734C139.85 146.331 139.811 145.976 139.688 145.67C139.57 145.364 139.372 145.126 139.092 144.957C138.818 144.788 138.473 144.697 138.057 144.684C137.692 144.677 137.334 144.736 136.982 144.859C136.637 144.983 136.338 145.169 136.084 145.416C135.83 145.663 135.664 145.976 135.586 146.354L133.828 146.363C133.874 145.836 134.04 145.377 134.326 144.986C134.613 144.589 134.971 144.26 135.4 144C135.83 143.733 136.292 143.538 136.787 143.414C137.282 143.284 137.764 143.222 138.232 143.229C138.942 143.242 139.557 143.395 140.078 143.688C140.605 143.974 141.003 144.378 141.27 144.898C141.536 145.419 141.634 146.044 141.562 146.773L140.752 151.695C140.693 152.053 140.658 152.415 140.645 152.779C140.638 153.137 140.68 153.489 140.771 153.834L140.752 154L138.965 154.01C138.893 153.71 138.857 153.408 138.857 153.102C138.864 152.796 138.887 152.493 138.926 152.193ZM140.01 147.594L139.805 148.863L138.135 148.854C137.783 148.854 137.412 148.88 137.021 148.932C136.631 148.984 136.26 149.081 135.908 149.225C135.557 149.368 135.26 149.576 135.02 149.85C134.779 150.117 134.632 150.465 134.58 150.895C134.541 151.246 134.583 151.552 134.707 151.812C134.837 152.066 135.033 152.265 135.293 152.408C135.553 152.551 135.856 152.626 136.201 152.633C136.65 152.639 137.093 152.551 137.529 152.369C137.965 152.187 138.346 151.926 138.672 151.588C138.997 151.249 139.222 150.859 139.346 150.416L139.99 151.285C139.867 151.715 139.665 152.112 139.385 152.477C139.105 152.835 138.773 153.144 138.389 153.404C138.011 153.665 137.604 153.867 137.168 154.01C136.732 154.153 136.296 154.221 135.859 154.215C135.267 154.202 134.73 154.068 134.248 153.814C133.773 153.561 133.395 153.206 133.115 152.75C132.842 152.288 132.725 151.751 132.764 151.139C132.803 150.468 132.979 149.905 133.291 149.449C133.604 148.993 134.004 148.629 134.492 148.355C134.987 148.082 135.527 147.887 136.113 147.77C136.699 147.646 137.279 147.584 137.852 147.584L140.01 147.594ZM146.846 143.434L145.01 154H143.252L145.088 143.434H146.846ZM145.244 141.891L147.539 139.02H149.785L146.797 141.891H145.244Z" fill="#6D6E71"/>
<defs>
<linearGradient id="paint0_linear_41_64" x1="8" y1="149" x2="231.484" y2="90.0445" gradientUnits="userSpaceOnUse">
<stop stop-color="#1351B4"/>
<stop offset="1" stop-color="#FABA00"/>
</linearGradient>
</defs>
</svg>
